<?xml version="1.0" encoding="UTF-8"?>
<svg version="1.1" xmlns="http://www.w3.org/2000/svg" width="238" height="260">
<path d="M0 0 C0.763125 0.20625 1.52625 0.4125 2.3125 0.625 C2.3125 1.615 2.3125 2.605 2.3125 3.625 C25.4125 3.625 48.5125 3.625 72.3125 3.625 C72.3125 5.935 72.3125 8.245 72.3125 10.625 C53.1725 10.955 34.0325 11.285 14.3125 11.625 C19.90450479 15.62252147 19.90450479 15.62252147 25.76708984 16.17089844 C27.32802872 16.20047638 27.32802872 16.20047638 28.92050171 16.23065186 C30.02697052 16.23188049 31.13343933 16.23310913 32.2734375 16.234375 C33.99199448 16.25917938 33.99199448 16.25917938 35.74526978 16.28448486 C39.39273452 16.33294148 43.03978236 16.35433168 46.6875 16.375 C49.16538553 16.40316147 51.64325166 16.43308913 54.12109375 16.46484375 C60.18482021 16.53870005 66.24842953 16.59035637 72.3125 16.625 C72.3125 18.935 72.3125 21.245 72.3125 23.625 C71.64708694 23.62864563 70.98167389 23.63229126 70.2960968 23.63604736 C63.36899925 23.67786477 56.44256472 23.74720565 49.51586914 23.83251953 C46.93097567 23.86074137 44.3459957 23.88194979 41.76098633 23.89599609 C38.04463377 23.91740777 34.32932253 23.96405236 30.61328125 24.015625 C29.45790359 24.01685364 28.30252594 24.01808228 27.11213684 24.01934814 C26.03139389 24.03906677 24.95065094 24.0587854 23.8371582 24.07910156 C22.88895706 24.08798401 21.94075592 24.09686646 20.96382141 24.10601807 C17.61679253 24.54872232 17.61679253 24.54872232 13.3125 28.625 C42.5175 29.12 42.5175 29.12 72.3125 29.625 C72.3125 31.935 72.3125 34.245 72.3125 36.625 C47.0675 37.12 47.0675 37.12 21.3125 37.625 C23.72614949 41.73144232 23.72614949 41.73144232 26.49552917 42.14398193 C27.76460869 42.1573056 27.76460869 42.1573056 29.05932617 42.17089844 C30.02009567 42.19061707 30.98086517 42.21033569 31.9707489 42.23065186 C33.00520645 42.23188049 34.039664 42.23310913 35.10546875 42.234375 C36.16663406 42.25091125 37.22779938 42.26744751 38.32112122 42.28448486 C41.71413881 42.33311283 45.10670776 42.35436917 48.5 42.375 C50.79885088 42.40314721 53.09768072 42.43307287 55.39648438 42.46484375 C61.03507439 42.53887554 66.67353747 42.59043121 72.3125 42.625 C72.3125 44.935 72.3125 47.245 72.3125 49.625 C58.4525 49.955 44.5925 50.285 30.3125 50.625 C31.3025 53.1 31.3025 53.1 32.3125 55.625 C45.5125 55.625 58.7125 55.625 72.3125 55.625 C72.3125 57.935 72.3125 60.245 72.3125 62.625 C61.0925 62.625 49.8725 62.625 38.3125 62.625 C38.9725 63.945 39.6325 65.265 40.3125 66.625 C41.71326782 66.66258423 41.71326782 66.66258423 43.14233398 66.70092773 C46.59575189 66.79586928 50.0489896 66.89511258 53.50219727 66.99731445 C54.99889269 67.04071813 56.49563939 67.08238913 57.99243164 67.12231445 C60.13964312 67.17988616 62.28659521 67.24361716 64.43359375 67.30859375 C65.7270874 67.34525146 67.02058105 67.38190918 68.35327148 67.41967773 C71.3125 67.625 71.3125 67.625 72.3125 68.625 C72.35342937 70.95797433 72.35491723 73.29205225 72.3125 75.625 C71.41942139 75.6343457 70.52634277 75.64369141 69.60620117 75.65332031 C66.29014838 75.69735304 62.97539061 75.75896861 59.65991211 75.83251953 C58.22546317 75.86073182 56.79085871 75.88194524 55.35620117 75.89599609 C53.29264698 75.91742449 51.23096294 75.96406467 49.16796875 76.015625 C47.92684326 76.03657227 46.68571777 76.05751953 45.40698242 76.07910156 C41.80606502 76.35080449 41.80606502 76.35080449 39.3125 80.625 C50.2025 80.625 61.0925 80.625 72.3125 80.625 C72.3125 82.935 72.3125 85.245 72.3125 87.625 C70.26114403 89.67635597 65.97517278 88.85852585 63.1484375 88.90625 C62.32300446 88.92465942 61.49757141 88.94306885 60.64712524 88.96203613 C57.99399159 89.02096616 55.3407902 89.07363361 52.6875 89.125 C50.05564084 89.17656728 47.42386348 89.22964563 44.79214478 89.28796387 C43.15272253 89.32427497 41.51321015 89.35678186 39.87362671 89.3848877 C36.31336976 89.46350879 32.97350856 89.67577819 29.43994141 90.20507812 C26.3125 90.625 26.3125 90.625 23.3125 89.625 C21.28382198 89.48632363 19.25138654 89.39991338 17.21875 89.34375 C16.02378906 89.30636719 14.82882813 89.26898438 13.59765625 89.23046875 C12.34855469 89.19566406 11.09945312 89.16085938 9.8125 89.125 C7.34363162 89.056208 4.87486891 88.98347756 2.40625 88.90625 C1.30990234 88.87595703 0.21355469 88.84566406 -0.91601562 88.81445312 C-3.6875 88.625 -3.6875 88.625 -6.6875 87.625 C-6.0275 89.275 -5.3675 90.925 -4.6875 92.625 C33.4275 93.12 33.4275 93.12 72.3125 93.625 C72.3125 95.935 72.3125 98.245 72.3125 100.625 C47.8925 100.625 23.4725 100.625 -1.6875 100.625 C-1.0275 102.605 -0.3675 104.585 0.3125 106.625 C24.0725 106.625 47.8325 106.625 72.3125 106.625 C72.3125 108.935 72.3125 111.245 72.3125 113.625 C50.2025 113.955 28.0925 114.285 5.3125 114.625 C7.75398345 118.80087295 7.75398345 118.80087295 10.83720398 119.14398193 C11.84314102 119.15286438 12.84907806 119.16174683 13.88549805 119.17089844 C15.02645432 119.19061707 16.16741058 119.21033569 17.34294128 119.23065186 C19.18992363 119.23249481 19.18992363 119.23249481 21.07421875 119.234375 C22.33514847 119.25091125 23.59607819 119.26744751 24.8952179 119.28448486 C28.24419254 119.32487159 31.59240506 119.34816103 34.94152832 119.36322021 C38.36026518 119.38278424 41.77871874 119.42475482 45.19726562 119.46484375 C51.90227483 119.53890843 58.60717712 119.59044558 65.3125 119.625 C65.3125 121.935 65.3125 124.245 65.3125 126.625 C48.1525 126.625 30.9925 126.625 13.3125 126.625 C13.9725 128.605 14.6325 130.585 15.3125 132.625 C29.8325 132.625 44.3525 132.625 59.3125 132.625 C59.3125 134.935 59.3125 137.245 59.3125 139.625 C46.1125 139.625 32.9125 139.625 19.3125 139.625 C19.6425 141.605 19.9725 143.585 20.3125 145.625 C31.2025 145.625 42.0925 145.625 53.3125 145.625 C53.3125 147.605 53.3125 149.585 53.3125 151.625 C51.7081392 153.2293608 49.99232433 152.76585111 47.77124023 152.78271484 C46.31723061 152.79810806 46.31723061 152.79810806 44.83384705 152.81381226 C43.77363846 152.82111359 42.71342987 152.82841492 41.62109375 152.8359375 C39.3730402 152.86405488 37.12499345 152.89271951 34.87695312 152.921875 C31.33602446 152.96277963 27.79521598 152.99965896 24.25415039 153.02636719 C12.10326713 153.12595755 0.46461877 153.35259396 -11.42944336 155.95263672 C-15.88625002 156.87238535 -20.15141382 157.07038754 -24.6875 157 C-25.43515625 157.01160156 -26.1828125 157.02320313 -26.953125 157.03515625 C-32.03779682 157.00990126 -36.66035763 156.23202122 -41.625 155.14453125 C-53.48181592 152.67511409 -65.63001223 153.05191772 -77.6875 152.9375 C-80.11980926 152.90425844 -82.55210173 152.86976271 -84.984375 152.83398438 C-90.88530108 152.7498739 -96.78624553 152.68120472 -102.6875 152.625 C-102.6875 150.315 -102.6875 148.005 -102.6875 145.625 C-87.3425 145.13 -87.3425 145.13 -71.6875 144.625 C-71.3575 143.305 -71.0275 141.985 -70.6875 140.625 C-83.2275 140.295 -95.7675 139.965 -108.6875 139.625 C-108.6875 137.315 -108.6875 135.005 -108.6875 132.625 C-94.1675 132.295 -79.6475 131.965 -64.6875 131.625 C-65.6775 129.645 -65.6775 129.645 -66.6875 127.625 C-90.9425 127.13 -90.9425 127.13 -115.6875 126.625 C-115.6875 124.315 -115.6875 122.005 -115.6875 119.625 C-101.8275 119.625 -87.9675 119.625 -73.6875 119.625 C-75.94467688 114.60235494 -75.94467688 114.60235494 -78.75663757 113.98576355 C-79.94577507 113.9757708 -79.94577507 113.9757708 -81.15893555 113.96557617 C-82.50999641 113.93611153 -82.50999641 113.93611153 -83.88835144 113.90605164 C-85.34160576 113.91195061 -85.34160576 113.91195061 -86.82421875 113.91796875 C-87.81879593 113.90284744 -88.81337311 113.88772614 -89.83808899 113.87214661 C-93.01728745 113.8291307 -96.19553902 113.82041806 -99.375 113.8125 C-101.5293223 113.78936655 -103.68362189 113.76400364 -105.83789062 113.73632812 C-111.12110258 113.67333913 -116.40394244 113.63851489 -121.6875 113.625 C-121.6875 111.315 -121.6875 109.005 -121.6875 106.625 C-108.4875 106.625 -95.2875 106.625 -81.6875 106.625 C-82.3475 104.645 -83.0075 102.665 -83.6875 100.625 C-96.2275 100.625 -108.7675 100.625 -121.6875 100.625 C-121.6875 98.315 -121.6875 96.005 -121.6875 93.625 C-110.4675 93.625 -99.2475 93.625 -87.6875 93.625 C-88.0175 91.975 -88.3475 90.325 -88.6875 88.625 C-89.65163818 88.63023682 -90.61577637 88.63547363 -91.60913086 88.64086914 C-95.17422564 88.65892118 -98.73931636 88.67043274 -102.30444336 88.67993164 C-103.84969766 88.6849714 -105.39494716 88.6918032 -106.94018555 88.70043945 C-109.15675029 88.71252076 -111.37325218 88.71823173 -113.58984375 88.72265625 C-114.63204323 88.73039818 -114.63204323 88.73039818 -115.69529724 88.73829651 C-117.3597933 88.73849277 -119.02415499 88.68689129 -120.6875 88.625 C-121.0175 88.295 -121.3475 87.965 -121.6875 87.625 C-121.6875 85.315 -121.6875 83.005 -121.6875 80.625 C-111.4575 80.625 -101.2275 80.625 -90.6875 80.625 C-91.0175 78.975 -91.3475 77.325 -91.6875 75.625 C-101.5875 75.625 -111.4875 75.625 -121.6875 75.625 C-121.6875 72.985 -121.6875 70.345 -121.6875 67.625 C-112.1175 67.625 -102.5475 67.625 -92.6875 67.625 C-92.6875 65.975 -92.6875 64.325 -92.6875 62.625 C-102.2575 62.625 -111.8275 62.625 -121.6875 62.625 C-121.6875 60.315 -121.6875 58.005 -121.6875 55.625 C-111.7875 55.625 -101.8875 55.625 -91.6875 55.625 C-91.3575 53.645 -91.0275 51.665 -90.6875 49.625 C-100.9175 49.625 -111.1475 49.625 -121.6875 49.625 C-121.6875 47.315 -121.6875 45.005 -121.6875 42.625 C-110.7975 42.295 -99.9075 41.965 -88.6875 41.625 C-88.0275 40.305 -87.3675 38.985 -86.6875 37.625 C-98.2375 37.295 -109.7875 36.965 -121.6875 36.625 C-121.6875 34.315 -121.6875 32.005 -121.6875 29.625 C-120.4914917 29.6156543 -119.2954834 29.60630859 -118.06323242 29.59667969 C-113.62925862 29.55683186 -109.19598252 29.49108809 -104.76245117 29.41748047 C-102.84294593 29.38924052 -100.92332375 29.36804105 -99.00366211 29.35400391 C-96.24532062 29.33261589 -93.48838962 29.28598867 -90.73046875 29.234375 C-89.87100143 29.23314636 -89.01153412 29.23191772 -88.12602234 29.23065186 C-87.32541885 29.21093323 -86.52481537 29.1912146 -85.69995117 29.17089844 C-84.9960173 29.16201599 -84.29208344 29.15313354 -83.56681824 29.14398193 C-81.07919917 28.66312917 -81.07919917 28.66312917 -78.6875 24.625 C-92.8775 24.295 -107.0675 23.965 -121.6875 23.625 C-121.6875 21.315 -121.6875 19.005 -121.6875 16.625 C-120.73029556 16.61953156 -120.73029556 16.61953156 -119.75375366 16.61395264 C-113.10223178 16.57208986 -106.45139748 16.50271724 -99.80029297 16.41748047 C-97.31924319 16.38928304 -94.83810378 16.36806245 -92.35693359 16.35400391 C-88.78696853 16.33255838 -85.21807972 16.28589658 -81.6484375 16.234375 C-79.98873428 16.23253204 -79.98873428 16.23253204 -78.29550171 16.23065186 C-77.25487579 16.21093323 -76.21424988 16.1912146 -75.14208984 16.17089844 C-74.2316391 16.16201599 -73.32118835 16.15313354 -72.38314819 16.14398193 C-68.88800704 15.65157484 -68.88800704 15.65157484 -63.6875 11.625 C-82.8275 11.295 -101.9675 10.965 -121.6875 10.625 C-121.6875 8.315 -121.6875 6.005 -121.6875 3.625 C-120.73029556 3.61691315 -119.77309113 3.60882629 -118.78688049 3.60049438 C-109.73914048 3.52280372 -100.69154662 3.4350077 -91.64399815 3.33747292 C-86.99324554 3.28765726 -82.34251404 3.24132658 -77.69165039 3.203125 C-73.19818384 3.16608528 -68.70490045 3.11967608 -64.21159172 3.06693649 C-62.50254486 3.04849137 -60.79345889 3.03334748 -59.08435249 3.02165604 C-50.71072285 2.96235571 -42.83065274 2.80811762 -34.6875 0.625 C-31.97265625 0.38208008 -31.97265625 0.38208008 -29.75 0.39453125 C-28.91726562 0.39646484 -28.08453125 0.39839844 -27.2265625 0.40039062 C-25.96972656 0.41875977 -25.96972656 0.41875977 -24.6875 0.4375 C-23.84960938 0.43814453 -23.01171875 0.43878906 -22.1484375 0.43945312 C-17.2144662 0.47382289 -12.47138468 0.82369188 -7.59765625 1.6081543 C-4.31274082 1.63712403 -3.49492143 -0.48766346 0 0 Z M-9.6875 75.625 C-9.3575 77.275 -9.0275 78.925 -8.6875 80.625 C-1.4275 80.625 5.8325 80.625 13.3125 80.625 C11.62964166 77.38323486 11.62964166 77.38323486 8.5546875 76.89453125 C2.41669181 76.06141583 -3.49172134 75.38202829 -9.6875 75.625 Z " fill="#E8E8E9" transform="translate(138.6875,48.375)"/>
<path d="M0 0 C1.25586914 -0.00386719 1.25586914 -0.00386719 2.53710938 -0.0078125 C3.80071289 0.00378906 3.80071289 0.00378906 5.08984375 0.015625 C5.93611328 0.00789063 6.78238281 0.00015625 7.65429688 -0.0078125 C13.10498838 0.00899765 17.79309039 0.74073269 23.02734375 2.265625 C22.65222656 2.7503125 22.27710938 3.235 21.890625 3.734375 C21.37886719 4.4046875 20.86710937 5.075 20.33984375 5.765625 C19.78167969 6.49265625 19.22351563 7.2196875 18.6484375 7.96875 C17.14657391 10.09669166 16.05992763 12.19172076 14.90234375 14.515625 C12.08328553 19.18384038 8.20444095 19.80979909 3.1640625 21.2109375 C-1.91886402 22.92001616 -5.79209229 25.98572114 -9.97265625 29.265625 C-11.02453125 30.008125 -12.07640625 30.750625 -13.16015625 31.515625 C-27.2633455 45.30541004 -31.01016552 64.3513389 -31.27026367 83.24780273 C-31.2776355 84.95818726 -31.2776355 84.95818726 -31.28515625 86.703125 C-31.29071533 87.79246338 -31.29627441 88.88180176 -31.30200195 90.00415039 C-31.24955597 95.87048014 -30.7822876 101.32212998 -29.43579102 107.03759766 C-27.6627058 115.56747416 -29.61783372 122.38778281 -32.97265625 130.265625 C-33.53051819 129.77954269 -34.08838013 129.29346039 -34.66314697 128.79264832 C-37.34693322 127.01815699 -38.73976057 126.87429634 -41.92480469 126.83325195 C-42.90551941 126.81345779 -43.88623413 126.79366364 -44.89666748 126.77326965 C-46.47342255 126.76368477 -46.47342255 126.76368477 -48.08203125 126.75390625 C-49.70495087 126.72697945 -49.70495087 126.72697945 -51.36065674 126.69950867 C-54.81461699 126.64534864 -58.2684386 126.61149097 -61.72265625 126.578125 C-64.06512348 126.54495704 -66.40757241 126.51046787 -68.75 126.47460938 C-74.49076109 126.38961889 -80.23154 126.32129301 -85.97265625 126.265625 C-85.97265625 123.955625 -85.97265625 121.645625 -85.97265625 119.265625 C-72.11265625 119.265625 -58.25265625 119.265625 -43.97265625 119.265625 C-46.22983313 114.24297994 -46.22983313 114.24297994 -49.04179382 113.62638855 C-50.23093132 113.6163958 -50.23093132 113.6163958 -51.4440918 113.60620117 C-52.79515266 113.57673653 -52.79515266 113.57673653 -54.17350769 113.54667664 C-55.62676201 113.55257561 -55.62676201 113.55257561 -57.109375 113.55859375 C-58.10395218 113.54347244 -59.09852936 113.52835114 -60.12324524 113.51277161 C-63.3024437 113.4697557 -66.48069527 113.46104306 -69.66015625 113.453125 C-71.81447855 113.42999155 -73.96877814 113.40462864 -76.12304688 113.37695312 C-81.40625883 113.31396413 -86.68909869 113.27913989 -91.97265625 113.265625 C-91.97265625 110.955625 -91.97265625 108.645625 -91.97265625 106.265625 C-78.77265625 106.265625 -65.57265625 106.265625 -51.97265625 106.265625 C-52.63265625 104.285625 -53.29265625 102.305625 -53.97265625 100.265625 C-66.51265625 100.265625 -79.05265625 100.265625 -91.97265625 100.265625 C-91.97265625 97.955625 -91.97265625 95.645625 -91.97265625 93.265625 C-80.75265625 93.265625 -69.53265625 93.265625 -57.97265625 93.265625 C-58.30265625 91.615625 -58.63265625 89.965625 -58.97265625 88.265625 C-59.93679443 88.27086182 -60.90093262 88.27609863 -61.89428711 88.28149414 C-65.45938189 88.29954618 -69.02447261 88.31105774 -72.58959961 88.32055664 C-74.13485391 88.3255964 -75.68010341 88.3324282 -77.2253418 88.34106445 C-79.44190654 88.35314576 -81.65840843 88.35885673 -83.875 88.36328125 C-84.91719948 88.37102318 -84.91719948 88.37102318 -85.98045349 88.37892151 C-87.64494955 88.37911777 -89.30931124 88.32751629 -90.97265625 88.265625 C-91.30265625 87.935625 -91.63265625 87.605625 -91.97265625 87.265625 C-91.97265625 84.955625 -91.97265625 82.645625 -91.97265625 80.265625 C-81.74265625 80.265625 -71.51265625 80.265625 -60.97265625 80.265625 C-61.30265625 78.615625 -61.63265625 76.965625 -61.97265625 75.265625 C-71.87265625 75.265625 -81.77265625 75.265625 -91.97265625 75.265625 C-91.97265625 72.625625 -91.97265625 69.985625 -91.97265625 67.265625 C-82.40265625 67.265625 -72.83265625 67.265625 -62.97265625 67.265625 C-62.97265625 65.615625 -62.97265625 63.965625 -62.97265625 62.265625 C-72.54265625 62.265625 -82.11265625 62.265625 -91.97265625 62.265625 C-91.97265625 59.955625 -91.97265625 57.645625 -91.97265625 55.265625 C-82.07265625 55.265625 -72.17265625 55.265625 -61.97265625 55.265625 C-61.64265625 53.285625 -61.31265625 51.305625 -60.97265625 49.265625 C-71.20265625 49.265625 -81.43265625 49.265625 -91.97265625 49.265625 C-91.97265625 46.955625 -91.97265625 44.645625 -91.97265625 42.265625 C-81.08265625 41.935625 -70.19265625 41.605625 -58.97265625 41.265625 C-58.31265625 39.945625 -57.65265625 38.625625 -56.97265625 37.265625 C-68.52265625 36.935625 -80.07265625 36.605625 -91.97265625 36.265625 C-91.97265625 33.955625 -91.97265625 31.645625 -91.97265625 29.265625 C-90.77664795 29.2562793 -89.58063965 29.24693359 -88.34838867 29.23730469 C-83.91441487 29.19745686 -79.48113877 29.13171309 -75.04760742 29.05810547 C-73.12810218 29.02986552 -71.20848 29.00866605 -69.28881836 28.99462891 C-66.53047687 28.97324089 -63.77354587 28.92661367 -61.015625 28.875 C-60.15615768 28.87377136 -59.29669037 28.87254272 -58.41117859 28.87127686 C-57.6105751 28.85155823 -56.80997162 28.8318396 -55.98510742 28.81152344 C-55.28117355 28.80264099 -54.57723969 28.79375854 -53.85197449 28.78460693 C-51.36435542 28.30375417 -51.36435542 28.30375417 -48.97265625 24.265625 C-63.16265625 23.935625 -77.35265625 23.605625 -91.97265625 23.265625 C-91.97265625 20.955625 -91.97265625 18.645625 -91.97265625 16.265625 C-91.01545181 16.26015656 -91.01545181 16.26015656 -90.03890991 16.25457764 C-83.38738803 16.21271486 -76.73655373 16.14334224 -70.08544922 16.05810547 C-67.60439944 16.02990804 -65.12326003 16.00868745 -62.64208984 15.99462891 C-59.07212478 15.97318338 -55.50323597 15.92652158 -51.93359375 15.875 C-50.27389053 15.87315704 -50.27389053 15.87315704 -48.58065796 15.87127686 C-47.54003204 15.85155823 -46.49940613 15.8318396 -45.42724609 15.81152344 C-44.51679535 15.80264099 -43.6063446 15.79375854 -42.66830444 15.78460693 C-39.17316329 15.29219984 -39.17316329 15.29219984 -33.97265625 11.265625 C-53.11265625 10.935625 -72.25265625 10.605625 -91.97265625 10.265625 C-91.97265625 7.955625 -91.97265625 5.645625 -91.97265625 3.265625 C-91.01545181 3.25753815 -90.05824738 3.24945129 -89.07203674 3.24111938 C-80.02429673 3.16342872 -70.97670287 3.0756327 -61.9291544 2.97809792 C-57.27840179 2.92828226 -52.62767029 2.88195158 -47.97680664 2.84375 C-43.48334009 2.80671028 -38.9900567 2.76030108 -34.49674797 2.70756149 C-32.78770111 2.68911637 -31.07861514 2.67397248 -29.36950874 2.66228104 C-19.43149108 2.59190203 -9.71452441 0.02962068 0 0 Z " fill="#CE3342" transform="translate(108.97265625,48.734375)"/>
<path d="M0 0 C59.4 0 118.8 0 180 0 C180 2.64 180 5.28 180 8 C120.6 8 61.2 8 0 8 C-1 3 -1 3 0 0 Z " fill="#1D4878" transform="translate(24,39)"/>
<path d="M0 0 C0.33 0.99 0.66 1.98 1 3 C24.1 3 47.2 3 71 3 C71 5.31 71 7.62 71 10 C42.29 10.495 42.29 10.495 13 11 C18.59200479 14.99752147 18.59200479 14.99752147 24.45458984 15.54589844 C26.01552872 15.57547638 26.01552872 15.57547638 27.60800171 15.60565186 C28.71447052 15.60688049 29.82093933 15.60810913 30.9609375 15.609375 C32.67949448 15.63417938 32.67949448 15.63417938 34.43276978 15.65948486 C38.08023452 15.70794148 41.72728236 15.72933168 45.375 15.75 C47.85288553 15.77816147 50.33075166 15.80808913 52.80859375 15.83984375 C58.87232021 15.91370005 64.93592953 15.96535637 71 16 C71 18.31 71 20.62 71 23 C70.33458694 23.00364563 69.66917389 23.00729126 68.9835968 23.01104736 C62.05649925 23.05286477 55.13006472 23.12220565 48.20336914 23.20751953 C45.61847567 23.23574137 43.0334957 23.25694979 40.44848633 23.27099609 C36.73213377 23.29240777 33.01682253 23.33905236 29.30078125 23.390625 C28.14540359 23.39185364 26.99002594 23.39308228 25.79963684 23.39434814 C19.47091028 23.42974921 19.47091028 23.42974921 13.85522461 26.04370117 C13.24300049 26.68927979 12.63077637 27.3348584 12 28 C10.015625 27.91015625 10.015625 27.91015625 8 27 C7.14921875 26.62746094 6.2984375 26.25492188 5.421875 25.87109375 C2.71646534 24.41950699 0.34038459 22.99107346 -2 21 C-2.7229833 17.56582931 -2.65675697 16.29967415 -2 13 C-1.84015625 11.87722656 -1.6803125 10.75445312 -1.515625 9.59765625 C-1.05576103 6.38905992 -0.54548366 3.19497573 0 0 Z " fill="#1E4774" transform="translate(140,49)"/>
<path d="M0 0 C1.07694122 -0.00281982 2.15388245 -0.00563965 3.26345825 -0.00854492 C5.05105057 -0.00550858 5.05105057 -0.00550858 6.87475586 -0.00241089 C8.12175262 -0.00416321 9.36874939 -0.00591553 10.65353394 -0.00772095 C14.08320565 -0.01137925 17.5128174 -0.01050596 20.94248581 -0.00734186 C24.52415805 -0.00481797 28.10582766 -0.00715588 31.6875 -0.00872803 C37.70337385 -0.01054964 43.71923543 -0.00814364 49.73510742 -0.00338745 C56.69982288 0.00205516 63.66450907 0.00029249 70.62922382 -0.00521386 C76.5986395 -0.00974523 82.56804635 -0.01039542 88.53746319 -0.00777519 C92.10726591 -0.00621255 95.67705485 -0.00601829 99.24685669 -0.00931168 C103.22439724 -0.01272461 107.20190475 -0.00800025 111.17944336 -0.00241089 C112.37117157 -0.00443512 113.56289978 -0.00645935 114.79074097 -0.00854492 C116.4061528 -0.00431519 116.4061528 -0.00431519 118.05419922 0 C118.99589462 0.00037703 119.93759003 0.00075405 120.90782166 0.0011425 C123.02709961 0.12698364 123.02709961 0.12698364 124.02709961 1.12698364 C124.02709961 3.43698364 124.02709961 5.74698364 124.02709961 8.12698364 C81.12709961 8.12698364 38.22709961 8.12698364 -5.97290039 8.12698364 C-5.97290039 0.00239136 -5.97290039 0.00239136 0 0 Z " fill="#1C4878" transform="translate(54.972900390625,205.87301635742188)"/>
<path d="M0 0 C78.54 0 157.08 0 238 0 C238 85.8 238 171.6 238 260 C159.46 260 80.92 260 0 260 C0 174.2 0 88.4 0 0 Z M1 1 C1 86.14 1 171.28 1 259 C78.88 259 156.76 259 237 259 C237 173.86 237 88.72 237 1 C159.12 1 81.24 1 1 1 Z " fill="#000000" transform="translate(0,0)"/>
<path d="M0 0 C13.41225793 -0.0231207 26.82451117 -0.04091369 40.23678493 -0.05181217 C46.46393472 -0.0570416 52.69107092 -0.06414033 58.91821289 -0.07543945 C64.92226865 -0.08626621 70.92631129 -0.09227638 76.93037605 -0.09487724 C79.2266161 -0.09673188 81.52285539 -0.10035321 83.81908989 -0.10573006 C87.02320814 -0.11293768 90.2272715 -0.11399106 93.43139648 -0.11352539 C94.87069267 -0.1189183 94.87069267 -0.1189183 96.33906555 -0.12442017 C97.20709808 -0.1230455 98.07513062 -0.12167084 98.96946716 -0.12025452 C99.72810279 -0.12117631 100.48673841 -0.1220981 101.268363 -0.12304783 C103 0 103 0 104 1 C104 3.31 104 5.62 104 8 C69.68 8 35.36 8 0 8 C0 5.36 0 2.72 0 0 Z " fill="#1D4879" transform="translate(62,26)"/>
<path d="M0 0 C29.7 0 59.4 0 90 0 C90 2.64 90 5.28 90 8 C60.3 8 30.6 8 0 8 C0 5.36 0 2.72 0 0 Z " fill="#1C4878" transform="translate(69,219)"/>
<path d="M0 0 C25.74 0.33 51.48 0.66 78 1 C78 3.31 78 5.62 78 8 C53.25 8.33 28.5 8.66 3 9 C2.01 6.03 1.02 3.06 0 0 Z " fill="#1C4674" transform="translate(133,141)"/>
<path d="M0 0 C23.76 0 47.52 0 72 0 C72 2.31 72 4.62 72 7 C63.05543869 7.11577854 54.11113471 7.20465589 45.16598797 7.25906086 C41.01248931 7.2851709 36.85950273 7.32059326 32.70629883 7.37719727 C28.69921135 7.43146894 24.69261679 7.46140993 20.6851902 7.47438622 C19.15528411 7.48363501 17.62540544 7.50169607 16.09570885 7.52865028 C13.95473022 7.56488004 11.81579568 7.56994847 9.67456055 7.56762695 C8.45544479 7.57873001 7.23632904 7.58983307 5.98027039 7.60127258 C3 7 3 7 1.08283997 4.58952332 C0 2 0 2 0 0 Z " fill="#1C4674" transform="translate(139,155)"/>
<path d="M0 0 C24.75 0 49.5 0 75 0 C74.01 0.66 73.02 1.32 72 2 C70.91479317 2.73997726 70.91479317 2.73997726 69.80766296 3.49490356 C61.9677223 8.35216838 55.65393062 8.74242256 46.58203125 8.3671875 C45.230183 8.3334677 43.878263 8.30252245 42.52629089 8.27420044 C39.00545683 8.19312926 35.48686136 8.07495867 31.96740723 7.94842529 C28.36103237 7.82554338 24.7537991 7.73860605 21.14648438 7.6484375 C14.09642883 7.46701518 7.04811243 7.24629559 0 7 C0 4.69 0 2.38 0 0 Z " fill="#1D4674" transform="translate(17,52)"/>
<path d="M0 0 C9.9 0 19.8 0 30 0 C30.33 7.59 30.66 15.18 31 23 C30.67 22.01 30.34 21.02 30 20 C20.1 20 10.2 20 0 20 C0 17.36 0 14.72 0 12 C9.57 12 19.14 12 29 12 C29 10.35 29 8.7 29 7 C19.43 7 9.86 7 0 7 C0 4.69 0 2.38 0 0 Z " fill="#20497A" transform="translate(17,104)"/>
<path d="M0 0 C19.8 0 39.6 0 60 0 C60 2.31 60 4.62 60 7 C52.52608951 7.26960078 45.05171582 7.4995753 37.57568359 7.7019043 C35.03210831 7.77543586 32.48877933 7.85806971 29.94580078 7.94995117 C26.29225625 8.08038399 22.6390789 8.17815579 18.984375 8.26953125 C17.27637726 8.34105156 17.27637726 8.34105156 15.53387451 8.41401672 C7.62257613 8.56614552 7.62257613 8.56614552 4.43847656 5.6706543 C3.9637793 4.78933838 3.48908203 3.90802246 3 3 C2.01 2.01 1.02 1.02 0 0 Z " fill="#1D4572" transform="translate(151,78)"/>
<path d="M0 0 C0.99 0.495 0.99 0.495 2 1 C3.81718084 1.11957474 5.63857835 1.1772468 7.45947266 1.20532227 C8.60050446 1.22526749 9.74153625 1.24521271 10.91714478 1.26576233 C12.15362762 1.28247482 13.39011047 1.29918732 14.6640625 1.31640625 C16.5575795 1.3475779 16.5575795 1.3475779 18.48934937 1.37937927 C21.84632045 1.43377926 25.20330189 1.48400236 28.56036377 1.53222656 C31.98561065 1.58245042 35.41076829 1.63813186 38.8359375 1.69335938 C45.55722061 1.80061859 52.27857044 1.9023744 59 2 C59 4.31 59 6.62 59 9 C51.56341887 9.34622477 44.12636654 9.62850813 36.68554688 9.86669922 C34.15536833 9.95521008 31.62565526 10.05828553 29.09667969 10.17626953 C25.45792996 10.34348623 21.82071215 10.45801233 18.1796875 10.5625 C17.05134491 10.62566406 15.92300232 10.68882812 14.76046753 10.75390625 C7.07714183 10.90331377 7.07714183 10.90331377 3.91265869 8.24951172 C0 3.20136167 0 3.20136167 0 0 Z " fill="#1D4774" transform="translate(145,166)"/>
<path d="M0 0 C17.16 0 34.32 0 52 0 C52 2.31 52 4.62 52 7 C34.84 7 17.68 7 0 7 C0 4.69 0 2.38 0 0 Z " fill="#1C4674" transform="translate(88,232)"/>
<path d="M0 0 C17.49 0.33 34.98 0.66 53 1 C53 3.31 53 5.62 53 8 C35.51 8 18.02 8 0 8 C0.66 6.02 1.32 4.04 2 2 C1.34 2 0.68 2 0 2 C0 1.34 0 0.68 0 0 Z " fill="#1C4674" transform="translate(158,64)"/>
<path d="M0 0 C17.16 0 34.32 0 52 0 C46 7 46 7 44 8 C42.57926053 8.06118185 41.15547301 8.05828359 39.73388672 8.02172852 C38.85312469 8.00163223 37.97236267 7.98153595 37.06491089 7.96083069 C36.11278717 7.93379562 35.16066345 7.90676056 34.1796875 7.87890625 C32.71899338 7.84348976 32.71899338 7.84348976 31.22879028 7.80735779 C28.11071528 7.73062849 24.99288288 7.646644 21.875 7.5625 C19.76433489 7.5092886 17.65365785 7.45654814 15.54296875 7.40429688 C10.36182823 7.27500087 5.18086868 7.13974366 0 7 C0 4.69 0 2.38 0 0 Z " fill="#1D4573" transform="translate(17,65)"/>
<path d="M0 0 C0.66 1.32 1.32 2.64 2 4 C-14.17 4 -30.34 4 -47 4 C-47 1.69 -47 -0.62 -47 -3 C-41.11079119 -3.24216311 -35.2214485 -3.45707625 -29.33032227 -3.64697266 C-27.32712407 -3.71536111 -25.32416392 -3.79114369 -23.3215332 -3.87451172 C-20.43992553 -3.99317877 -17.55850337 -4.08507844 -14.67578125 -4.171875 C-13.78288895 -4.21439392 -12.88999664 -4.25691284 -11.970047 -4.30072021 C-6.69075821 -4.42837174 -3.73404243 -4.13880811 0 0 Z " fill="#1C4674" transform="translate(70,171)"/>
<path d="M0 0 C15.84 0 31.68 0 48 0 C48 2.31 48 4.62 48 7 C33.48 7 18.96 7 4 7 C2.02 3.535 2.02 3.535 0 0 Z " fill="#1C4674" transform="translate(163,91)"/>
<path d="M0 0 C4.02209323 0.60807603 7.11302478 1.88628211 10.6875 3.8125 C11.64011719 4.31394531 12.59273437 4.81539062 13.57421875 5.33203125 C16.09493035 7.06527417 16.95171991 8.17393495 18 11 C18.66 11 19.32 11 20 11 C19.91664022 13.8342324 19.38608745 15.55701545 17.515625 17.703125 C14.05420072 20.86870106 14.05420072 20.86870106 12 22 C6.89090593 21.52790712 1.80503367 18.27971186 -2 15 C-3.0640432 12.14327532 -2.69556159 9.92248056 -2 7 C-1.84015625 6.31808594 -1.6803125 5.63617188 -1.515625 4.93359375 C-1.07234649 3.27129935 -0.54403295 1.63209885 0 0 Z " fill="#CC3645" transform="translate(140,55)"/>
<path d="M0 0 C0 0.33 0 0.66 0 1 C-16.83 1 -33.66 1 -51 1 C-51 -1.31 -51 -3.62 -51 -6 C-15.31683845 -8.63861072 -15.31683845 -8.63861072 0 0 Z " fill="#1D4775" transform="translate(87,200)"/>
<path d="M0 0 C1.49121094 2.6706543 1.49121094 2.6706543 2.49121094 5.6706543 C-12.35878906 5.6706543 -27.20878906 5.6706543 -42.50878906 5.6706543 C-42.50878906 3.3606543 -42.50878906 1.0506543 -42.50878906 -1.3293457 C-36.88631902 -1.5960136 -31.26383227 -1.82911087 -25.63867188 -2.03125 C-23.72553546 -2.10471989 -21.81272754 -2.18733875 -19.90039062 -2.27929688 C-17.15041778 -2.409942 -14.40093958 -2.50758139 -11.64941406 -2.59887695 C-10.36795502 -2.67039726 -10.36795502 -2.67039726 -9.06060791 -2.74336243 C-3.11779546 -2.89479238 -3.11779546 -2.89479238 0 0 Z " fill="#1C4674" transform="translate(59.5087890625,156.329345703125)"/>
<path d="M0 0 C0.33 0.66 0.66 1.32 1 2 C11.89 2 22.78 2 34 2 C34 3.98 34 5.96 34 8 C33 9 33 9 30.98155212 9.12025452 C30.09552811 9.11803391 29.20950409 9.11581329 28.29663086 9.11352539 C27.29566879 9.11344986 26.29470673 9.11337433 25.26341248 9.11329651 C24.1748848 9.10813522 23.08635712 9.10297394 21.96484375 9.09765625 C20.85645645 9.0962413 19.74806915 9.09482635 18.60609436 9.09336853 C15.04986931 9.08775033 11.49370617 9.07519475 7.9375 9.0625 C5.53320403 9.05748734 3.12890708 9.05292403 0.72460938 9.04882812 C-5.18361504 9.03777499 -11.0918031 9.02101917 -17 9 C-14.03171001 7.02114001 -11.22552946 5.74135003 -7.9375 4.375 C-6.87402344 3.92898437 -5.81054688 3.48296875 -4.71484375 3.0234375 C-2 2 -2 2 0 2 C0 1.34 0 0.68 0 0 Z " fill="#1E4876" transform="translate(158,192)"/>
<path d="M0 0 C14.52 0 29.04 0 44 0 C44 2.31 44 4.62 44 7 C30.47 7.33 16.94 7.66 3 8 C2.01 5.36 1.02 2.72 0 0 Z " fill="#1C4674" transform="translate(154,181)"/>
<path d="M0 0 C14.52 0 29.04 0 44 0 C42.68 2.31 41.36 4.62 40 7 C26.8 7 13.6 7 0 7 C0 4.69 0 2.38 0 0 Z " fill="#1C4674" transform="translate(30,181)"/>
<path d="M0 0 C1.56696706 0.04014958 3.13403222 0.07664785 4.70117188 0.109375 C8.53237392 0.19733502 12.35886332 0.33523206 16.1875 0.5 C16.22991723 2.83294775 16.22842937 5.16702567 16.1875 7.5 C15.1875 8.5 15.1875 8.5 11.67749023 8.61352539 C10.11701578 8.61336626 8.55653607 8.60767142 6.99609375 8.59765625 C6.17625504 8.5962413 5.35641632 8.59482635 4.51173401 8.59336853 C1.88278618 8.58775289 -0.74607773 8.57519779 -3.375 8.5625 C-5.15299357 8.55748701 -6.93098846 8.55292376 -8.70898438 8.54882812 C-13.07685545 8.53777839 -17.44466348 8.52050331 -21.8125 8.5 C-18.67961401 -2.29696891 -9.2405991 -0.40944864 0 0 Z " fill="#1D4979" transform="translate(194.8125,128.5)"/>
<path d="M0 0 C13.2 0 26.4 0 40 0 C40 2.31 40 4.62 40 7 C26.8 7 13.6 7 0 7 C0 4.69 0 2.38 0 0 Z " fill="#1C4675" transform="translate(94,14)"/>
<path d="M0 0 C13.2 0 26.4 0 40 0 C38 5 38 5 37 7 C24.79 7 12.58 7 0 7 C0 4.69 0 2.38 0 0 Z " fill="#1D4673" transform="translate(17,78)"/>
<path d="M0 0 C13.2 0 26.4 0 40 0 C40 2.31 40 4.62 40 7 C28.78 7 17.56 7 6 7 C5.67 7.66 5.34 8.32 5 9 C3.35 6.03 1.7 3.06 0 0 Z " fill="#1D4775" transform="translate(171,104)"/>
<path d="M0 0 C2 3 2 3 4 9 C-8.54 9 -21.08 9 -34 9 C-34 6.69 -34 4.38 -34 2 C-22.78 2 -11.56 2 0 2 C0 1.34 0 0.68 0 0 Z " fill="#1D4674" transform="translate(51,140)"/>
<path d="M0 0 C10.23 0 20.46 0 31 0 C33 4 33 4 33 8 C28.46102295 8.02465392 23.92208457 8.04283789 19.38305664 8.05493164 C17.83780234 8.0599714 16.29255284 8.0668032 14.74731445 8.07543945 C12.53074971 8.08752076 10.31424782 8.09323173 8.09765625 8.09765625 C7.05545677 8.10539818 7.05545677 8.10539818 5.99220276 8.11329651 C4.3277067 8.11349277 2.66334501 8.06189129 1 8 C0.67 7.67 0.34 7.34 0 7 C0 4.69 0 2.38 0 0 Z " fill="#1D4878" transform="translate(17,129)"/>
<path d="M0 0 C4.39656173 -0.02465504 8.7930872 -0.04283842 13.18969727 -0.05493164 C14.68644918 -0.05997121 16.18319616 -0.06680287 17.67993164 -0.07543945 C19.82699807 -0.08752159 21.97399962 -0.09323191 24.12109375 -0.09765625 C26.06133423 -0.10551147 26.06133423 -0.10551147 28.04077148 -0.11352539 C31 0 31 0 32 1 C32 3.31 32 5.62 32 8 C22.1 8 12.2 8 2 8 C1.34 5.36 0.68 2.72 0 0 Z " fill="#1D4979" transform="translate(179,116)"/>
<path d="M0 0 C0.495 0.99 0.495 0.99 1 2 C0.01 3.98 -0.98 5.96 -2 8 C-12.23 8 -22.46 8 -33 8 C-33 5.69 -33 3.38 -33 1 C-22.11 0.67 -11.22 0.34 0 0 Z " fill="#1D4674" transform="translate(50,90)"/>
<path d="M0 0 C0.33 0.99 0.66 1.98 1 3 C4.45866792 2.86149295 7.91683275 2.71295273 11.375 2.5625 C12.85226563 2.50352539 12.85226563 2.50352539 14.359375 2.44335938 C15.77089844 2.38051758 15.77089844 2.38051758 17.2109375 2.31640625 C18.51490479 2.26141968 18.51490479 2.26141968 19.84521484 2.20532227 C22.0483262 2.12598456 22.0483262 2.12598456 24 1 C25.14842923 2.28935919 26.29366227 3.58156579 27.4375 4.875 C28.07558594 5.59429687 28.71367187 6.31359375 29.37109375 7.0546875 C31 9 31 9 32 11 C27.75001434 11.02902996 23.50005419 11.04680887 19.25 11.0625 C17.44015625 11.07506836 17.44015625 11.07506836 15.59375 11.08789062 C13.85351562 11.09272461 13.85351562 11.09272461 12.078125 11.09765625 C11.00981445 11.10289307 9.94150391 11.10812988 8.84082031 11.11352539 C6.33957877 11.01357031 4.32510593 10.91687257 2 10 C0.40155515 6.40349908 0 3.96602757 0 0 Z " fill="#224C7B" transform="translate(129,126)"/>
<path d="M0 0 C9.57 0 19.14 0 29 0 C29 1.98 29 3.96 29 6 C19.43 6 9.86 6 0 6 C0 4.02 0 2.04 0 0 Z " fill="#1C4470" transform="translate(18,104)"/>
<path d="M0 0 C4.29180445 0.5109291 6.64388709 3.04005567 9.75 5.875 C10.25660156 6.32230469 10.76320312 6.76960938 11.28515625 7.23046875 C12.58748547 8.42046769 13.80102294 9.70593165 15 11 C15 11.99 15 12.98 15 14 C5.2996139 14.61158301 5.2996139 14.61158301 0.8125 12.5 C-1.8557794 8.81961462 -1.43440005 6.48880047 -1 2 C-0.67 1.34 -0.34 0.68 0 0 Z " fill="#D23947" transform="translate(142,83)"/>
<path d="M0 0 C2.66666667 2.66666667 5.33333333 5.33333333 8 8 C5.66705225 8.04241723 3.33297433 8.04092937 1 8 C0 7 0 7 -0.0625 3.4375 C-0.041875 2.303125 -0.02125 1.16875 0 0 Z " fill="#335B85" transform="translate(128,116)"/>
</svg>
